# xmcd CD database file
#
# Track frame offsets:
#	150
#	14688
#	20213
#	40799
#	52022
#	67324
#	85614
#	100211
#	136795
#	156013
#
# Disc length: 2358 seconds
#
# Revision: 0
# Processed by: cddbd v1.5PL3 Copyright (c) Steve Scherf et al.
# Submitted via: CDex 1.51
#
DISCID=8409340a
DTITLE=mama!milk - Gala de Caras
DYEAR=2003
DGENRE=Jazz
TTITLE0=august
TTITLE1=Greco on thursday
TTITLE2=Gala de Caras
TTITLE3=intermezzo, op.28
TTITLE4=0
TTITLE5=Greco on monday
TTITLE6=zizi
TTITLE7=waltz for hapone
TTITLE8=sones
TTITLE9=a piacere
EXTD=YEAR: 2003
EXTT0=
EXTT1=
EXTT2=
EXTT3=
EXTT4=
EXTT5=
EXTT6=
EXTT7=
EXTT8=
EXTT9=
PLAYORDER=
